PathFileType	4	(X/Y/Z)	./resultDataOpenSim/trcMotMarkerGrf/sub10/qtm-15-07.trc
DataRate	CameraRate	NumFrames	NumMarkers	Units	OrigDataRate	OrigDataStartFrame	OrigNumFrames
250.000000	250.000000	14	24	m	250.000000	1	520
Frame#	Time	L.Toe.Tip			R.Toe.Tip			L.Ankle.Lat			R.Ankle.Lat			L.Ankle.Med			R.Ankle.Med			L.Heel			R.Heel			L.Knee.Lat			R.Knee.Lat			L.Knee.Med			R.Knee.Med			L.Thigh.Upper			R.Thigh.Upper			L.ASIS			R.ASIS			V.Sacral			L.Acromium			R.Acromium			C7			L.Elbow			R.Elbow			L.Wrist.Lat			R.Wrist.Lat
		X1	Y1	Z1	X2	Y2	Z2	X3	Y3	Z3	X4	Y4	Z4	X5	Y5	Z5	X6	Y6	Z6	X7	Y7	Z7	X8	Y8	Z8	X9	Y9	Z9	X10	Y10	Z10	X11	Y11	Z11	X12	Y12	Z12	X13	Y13	Z13	X14	Y14	Z14	X15	Y15	Z15	X16	Y16	Z16	X17	Y17	Z17	X18	Y18	Z18	X19	Y19	Z19	X20	Y20	Z20	X21	Y21	Z21	X22	Y22	Z22	X23	Y23	Z23	X24	Y24	Z24

1	0	-1.4980252	0.038174311	-0.16482029	-0.90413624	0.10774539	-0.0098252557	-1.6307904	0.06552219	-0.1939209	-1.0447408	0.069786195	0.0077128794	-1.6230146	0.088423898	-0.1103127	-1.0247482	0.11320045	-0.066220877	NaN	NaN	NaN	-1.0729982	0.035930196	-0.049697056	-1.4975903	0.43121052	-0.23260481	-1.1709532	0.4537171	0.048419527	-1.4967252	0.40983227	-0.11084817	-1.1436519	0.46519254	-0.077248464	-1.383	0.80682204	-0.29750545	-1.32115	0.84524301	0.085592786	-1.3037994	0.90936621	-0.24203752	-1.2668304	0.93394249	0.0022856359	-1.4846818	0.93364567	-0.09122497	-1.3179318	1.3881809	-0.27927303	-1.3732109	1.38771	0.038820053	-1.4261279	1.4195647	-0.13869717	-1.342543	1.0385385	-0.34409069	-1.5361526	1.0811624	0.073039059	-1.1166104	0.92863717	-0.32361043	-1.4556687	0.85602909	0.13560468
2	0.004	-1.4979999	0.03811747	-0.16477913	-0.89193343	0.1119423	-0.012366896	-1.6307188	0.06582318	-0.19371834	-1.0316827	0.070984261	0.0087018642	-1.621977	0.088937464	-0.11032801	-1.0137209	0.11427118	-0.065766683	NaN	NaN	NaN	-1.0599637	0.036225327	-0.047790181	-1.4947193	0.43048367	-0.23239932	-1.1664271	0.45195337	0.048472276	-1.4935187	0.4089609	-0.11062017	-1.1402083	0.46261306	-0.077830914	-1.3798627	0.80599665	-0.29721235	-1.3158268	0.84358774	0.085811302	-1.3002787	0.90833394	-0.24207091	-1.2617492	0.93283842	0.002061827	-1.4804606	0.93194056	-0.090405526	-1.3135027	1.3864717	-0.27942422	-1.3679218	1.3861195	0.038832539	-1.421605	1.4182361	-0.13864266	-1.3364882	1.036506	-0.34323535	-1.5316871	1.079544	0.072996004	-1.1099868	0.92862259	-0.32197052	-1.451977	0.85423962	0.13540429
3	0.008	-1.4979726	0.03807208	-0.16474401	-0.88005221	0.11583507	-0.014653887	-1.6305939	0.066162337	-0.19348818	-1.0188957	0.072235902	0.0096768553	-1.6209871	0.089450807	-0.11028534	-1.0029344	0.11537832	-0.065341197	NaN	NaN	NaN	-1.0472512	0.036593061	-0.045919028	-1.491791	0.42977048	-0.23219576	-1.1614589	0.4503444	0.04865594	-1.4901831	0.40813673	-0.11043012	-1.1367653	0.46009502	-0.078342981	-1.3766772	0.80519238	-0.29692901	-1.3104653	0.84196742	0.08599899	-1.2967512	0.90730859	-0.24215205	-1.2567103	0.93173025	0.0018488854	-1.4762433	0.93025518	-0.089595281	-1.3090358	1.3847818	-0.2795641	-1.3625848	1.3845248	0.03886698	-1.4170922	1.4169159	-0.13859827	-1.3304566	1.0345077	-0.34241155	-1.5273027	1.0780033	0.072983528	-1.1032896	0.92861581	-0.32024566	-1.4482589	0.85243806	0.13520085
4	0.012	-1.4979065	0.038042545	-0.16473324	-0.86868075	0.11925625	-0.016567674	-1.6304134	0.066561175	-0.19321721	-1.0065821	0.073543302	0.010604179	-1.6201023	0.089962782	-0.11014002	-0.99253759	0.11651488	-0.064964555	NaN	NaN	NaN	-1.0350606	0.037070739	-0.044150204	-1.4887962	0.42907695	-0.23199561	-1.1560168	0.448969	0.048985296	-1.4866916	0.40735115	-0.11026836	-1.1333178	0.4577133	-0.07872634	-1.3734175	0.80440246	-0.2966478	-1.3050351	0.8403803	0.08617216	-1.2931995	0.90630826	-0.24228904	-1.251673	0.93062083	0.0016580721	-1.4720212	0.92859734	-0.088801349	-1.3045082	1.3831127	-0.27967454	-1.3572507	1.3829385	0.03892798	-1.4125788	1.4156098	-0.13855464	-1.3244482	1.0325484	-0.34160668	-1.5229413	1.0765247	0.073006088	-1.0965271	0.92861738	-0.31842032	-1.4444838	0.85061712	0.13499139
5	0.016	-1.4977604	0.038023655	-0.16476319	-0.85787865	0.12225211	-0.018215066	-1.6302076	0.067025876	-0.19290044	-0.99487737	0.074849472	0.011431655	-1.6193833	0.090472029	-0.10987963	-0.98257915	0.11763881	-0.06465368	NaN	NaN	NaN	-1.0234882	0.037641857	-0.042561512	-1.4857457	0.42840544	-0.23178924	-1.1504114	0.44782921	0.049374	-1.4831161	0.40657703	-0.11008876	-1.1298502	0.45555354	-0.078953327	-1.3700791	0.80360806	-0.29634763	-1.2995265	0.8388205	0.086363379	-1.2896227	0.90533635	-0.24247469	-1.2465848	0.92951626	0.0014915407	-1.4677797	0.92698162	-0.088014789	-1.2999284	1.3814624	-0.27973842	-1.3520098	1.3813789	0.038998702	-1.4080554	1.4143229	-0.13850979	-1.3184568	1.0306218	-0.34077398	-1.5184209	1.0750128	0.073029042	-1.089809	0.92861535	-0.31656476	-1.4406478	0.84878479	0.13477637
6	0.02	-1.4975678	0.038001477	-0.16480712	-0.84756982	0.12497831	-0.019731322	-1.6299918	0.067560709	-0.19253249	-0.9838377	0.076077259	0.012115827	-1.618823	0.09098792	-0.1095265	-0.97303384	0.11870961	-0.064421698	NaN	NaN	NaN	-1.0125682	0.0382505	-0.041213477	-1.482623	0.42776063	-0.23156378	-1.144861	0.44690612	0.049755401	-1.4795193	0.40581426	-0.1098563	-1.1263258	0.45368247	-0.079034048	-1.3666632	0.80280214	-0.29601589	-1.2939495	0.83730098	0.086575817	-1.2860309	0.90437643	-0.24271288	-1.2414587	0.92841309	0.0013285548	-1.4634751	0.92543768	-0.087181269	-1.2953297	1.3798357	-0.2797599	-1.3468642	1.3798557	0.03907061	-1.4035175	1.4130565	-0.13847548	-1.3124758	1.0287319	-0.33988433	-1.5135359	1.0733747	0.072983056	-1.0832345	0.9285941	-0.31475822	-1.4367727	0.84696119	0.13455925
7	0.024	-1.4974724	0.037960666	-0.16477509	-0.83764982	0.12749628	-0.021100526	-1.6297577	0.068170699	-0.19211683	-0.97347605	0.0771602	0.012637323	-1.6183066	0.091528514	-0.10911228	-0.96389399	0.11969451	-0.064271732	NaN	NaN	NaN	-1.0023164	0.03882621	-0.040138526	-1.47941	0.42714335	-0.23131172	-1.1393664	0.44617836	0.050121144	-1.4759067	0.405075	-0.1095657	-1.1226982	0.45212156	-0.078997619	-1.3631779	0.80199173	-0.29566195	-1.2882955	0.83585272	0.086796779	-1.2824087	0.90343385	-0.24300001	-1.2363405	0.9273044	0.0011354242	-1.4590002	0.9239904	-0.08617229	-1.2907503	1.3782434	-0.27976089	-1.3417671	1.3783732	0.039153475	-1.3989586	1.411813	-0.13844449	-1.3065107	1.0268932	-0.33895401	-1.5081907	1.0715872	0.07281731	-1.076823	0.92854875	-0.31302453	-1.4328837	0.8451629	0.1343437
8	0.028	-1.4976179	0.037897176	-0.16458277	-0.82817112	0.12969171	-0.02226673	-1.6294974	0.068853348	-0.19167549	-0.96380276	0.078049932	0.013001028	-1.6177181	0.092098808	-0.10865753	-0.95521831	0.12055339	-0.064199952	NaN	NaN	NaN	-0.99274783	0.03930926	-0.039337853	-1.4761097	0.42654142	-0.23102653	-1.1338844	0.44560929	0.050466682	-1.4722556	0.4043596	-0.10922788	-1.1189211	0.45084499	-0.078868842	-1.3596326	0.80118483	-0.2953016	-1.2825107	0.83451789	0.087018352	-1.2787094	0.90254357	-0.24331325	-1.2312239	0.92619352	0.0008948042	-1.4541837	0.92263694	-0.084793863	-1.2861984	1.376696	-0.2797518	-1.3367064	1.376931	0.039247634	-1.3943697	1.4105995	-0.138389	-1.3005751	1.0251193	-0.33800434	-1.5025255	1.0697212	0.072579965	-1.0705482	0.92848446	-0.31134925	-1.4289897	0.84339271	0.13412955
9	0.032	-1.4979502	0.037826872	-0.16427381	-0.81933582	0.13137204	-0.023241695	-1.6292147	0.069602568	-0.19124037	-0.95482897	0.078718677	0.013232028	-1.6170689	0.092682328	-0.10818115	-0.94707597	0.12123725	-0.064199259	NaN	NaN	NaN	-0.98388105	0.039672565	-0.038794713	-1.4727238	0.4259424	-0.23070909	-1.1283855	0.44516486	0.050775111	-1.4685494	0.40366354	-0.10885395	-1.1149606	0.4498055	-0.078671669	-1.3560261	0.80038502	-0.29493729	-1.2765585	0.83332544	0.087230097	-1.2749022	0.90172435	-0.24363544	-1.2260539	0.92509088	0.00061243703	-1.4489062	0.92135466	-0.082914972	-1.2816569	1.3752027	-0.27972605	-1.3316948	1.3755278	0.039345523	-1.3897479	1.4094239	-0.13828846	-1.2946792	1.023418	-0.33702195	-1.4968597	1.0679014	0.072401103	-1.0643699	0.92841153	-0.30971109	-1.4250806	0.84165328	0.13390794
10	0.036	-1.4982233	0.037776408	-0.16401024	-0.81127822	0.132436	-0.024055652	-1.6289168	0.070426437	-0.19083517	-0.94655334	0.079157058	0.013359359	-1.6164409	0.093269529	-0.10770745	-0.93948253	0.12170298	-0.064249461	NaN	NaN	NaN	-0.9757316	0.03991471	-0.038482119	-1.4692412	0.42534996	-0.23037112	-1.1227891	0.44483855	0.051039623	-1.4647802	0.40298073	-0.10844801	-1.1108016	0.4489669	-0.0784485	-1.3523459	0.79959622	-0.2945569	-1.2704502	0.83227468	0.087425102	-1.2710018	0.90095487	-0.24397363	-1.2208061	0.92400053	0.00029491427	-1.4432879	0.92012719	-0.08067827	-1.2771179	1.3737749	-0.27967731	-1.326725	1.374173	0.039457788	-1.3850957	1.4082921	-0.13813013	-1.2888355	1.0217989	-0.33599257	-1.4914063	1.0662076	0.072363825	-1.0582394	0.92834636	-0.30808369	-1.4211336	0.8399588	0.13366552
11	0.04	-1.4982656	0.037760539	-0.1639012	-0.80396596	0.13291864	-0.024704639	-1.6286099	0.071338869	-0.19046703	-0.93896652	0.079362416	0.013408627	-1.6158379	0.093888778	-0.10725202	-0.93242196	0.12192515	-0.064316317	NaN	NaN	NaN	-0.96830334	0.040027486	-0.038350766	-1.4656503	0.42477527	-0.2300254	-1.1169121	0.44466609	0.051275033	-1.4609175	0.40229431	-0.108019	-1.1064341	0.4483172	-0.078255563	-1.3485787	0.79882365	-0.2941521	-1.2642067	0.83134875	0.087607073	-1.2670398	0.90020151	-0.24434532	-1.2155057	0.92291859	-5.8302391e-05	-1.437663	0.91895283	-0.078472858	-1.2725805	1.3724282	-0.27960303	-1.3217386	1.37289	0.039601682	-1.3804137	1.4072067	-0.13790368	-1.2830725	1.020281	-0.33494843	-1.4861257	1.0646419	0.072458593	-1.0521319	0.92830384	-0.30644174	-1.4171145	0.83832412	0.13340091
12	0.044	-1.4981252	0.037771548	-0.16391454	-0.79731107	0.13289671	-0.025173386	-1.6282926	0.072335551	-0.19012929	-0.93206036	0.079333021	0.013411583	-1.6151814	0.094588088	-0.10682283	-0.92588952	0.12189795	-0.064375214	NaN	NaN	NaN	-0.96158898	0.039979977	-0.03831935	-1.461948	0.42422197	-0.22968587	-1.1105174	0.44471298	0.051513278	-1.4569156	0.4015888	-0.10759196	-1.1018429	0.44785533	-0.078131076	-1.3447212	0.79806735	-0.29373252	-1.2578599	0.83053021	0.087772872	-1.2630323	0.89944767	-0.24475813	-1.2101703	0.92184661	-0.00043939881	-1.4322809	0.91783307	-0.076588462	-1.2680352	1.3711751	-0.27950166	-1.3166557	1.3716993	0.039777046	-1.3757031	1.4061649	-0.13762023	-1.2774195	1.0188825	-0.33393591	-1.480856	1.0631909	0.072674922	-1.0460632	0.92828571	-0.30477654	-1.4129657	0.83675366	0.13313597
13	0.048	-1.4979396	0.037788796	-0.16396024	-0.79126263	0.13242021	-0.025466725	-1.627944	0.073402938	-0.18981463	-0.92582471	0.079073065	0.013405706	-1.6144261	0.095385686	-0.10644179	-0.9198851	0.12162628	-0.064424784	NaN	NaN	NaN	-0.95557438	0.03973616	-0.038290873	-1.4581407	0.42368649	-0.22936434	-1.1035244	0.44500027	0.051766102	-1.4527697	0.4008639	-0.10719257	-1.0970185	0.44756921	-0.078075292	-1.3407838	0.79732072	-0.29330247	-1.2514624	0.82981099	0.087909994	-1.2589785	0.89869446	-0.24520298	-1.2047906	0.92079813	-0.00083097517	-1.4271357	0.91676645	-0.075020119	-1.2634732	1.3700152	-0.27937437	-1.3114519	1.3705968	0.039975224	-1.3709685	1.4051636	-0.13730552	-1.2718709	1.0176007	-0.33294417	-1.4754645	1.0618597	0.073040474	-1.0400626	0.92828554	-0.30310291	-1.4086064	0.83524996	0.13290506
14	0.052	-1.4977913	0.037798951	-0.16398491	-0.78579279	0.13152139	-0.025601629	-1.6275308	0.074538726	-0.18953241	-0.92024302	0.078596939	0.013422546	-1.6135986	0.096261927	-0.1061418	-0.91440147	0.1211093	-0.064472624	NaN	NaN	NaN	-0.95024151	0.03927833	-0.038193513	-1.4542365	0.42316268	-0.22904565	-1.0961724	0.44544173	0.05198283	-1.4485207	0.40012188	-0.10682757	-1.0919616	0.44742935	-0.078063684	-1.3367914	0.79657879	-0.29281607	-1.2450415	0.82920435	0.088022969	-1.2548634	0.89794858	-0.24565572	-1.1993709	0.91978774	-0.0012250735	-1.4220985	0.91575393	-0.073630575	-1.2588958	1.3689405	-0.27922399	-1.306166	1.3695628	0.040193907	-1.3662124	1.404206	-0.13696643	-1.2663781	1.0164122	-0.33190037	-1.4699176	1.060642	0.073521539	-1.0341508	0.92830048	-0.30144731	-1.4039755	0.8338261	0.13272824
